<svg enable-background="new 0 0 512 512" viewBox="0 0 512 512" xmlns="http://www.w3.org/2000/svg"><path d="m512 255.904c0 70.692-28.654 134.692-74.981 181.019s-110.327 74.981-181.019 74.981-134.692-28.654-181.019-74.98-74.981-110.327-74.981-181.02 28.654-134.692 74.981-181.019 110.327-74.981 181.019-74.981 134.692 28.654 181.019 74.981 74.981 110.327 74.981 181.019z" fill="#29a4fc"/><path d="m508.82 296.314c-9.685 61.09-40.983 114.987-85.813 153.612s-103.192 61.978-167.007 61.978-122.178-23.353-167.008-61.978-76.127-92.522-85.812-153.612h252.82z" fill="#4f66ce"/><path d="m497.798 317.082c-7.731 30.337-25.579 55.424-49.019 72.572s-52.473 26.355-82.574 24.934c-4.312-.207-8.646-.629-12.989-1.277s-8.695-1.52-13.04-2.627c-34.689-8.84-62.509-30.904-79.447-59.429s-22.994-63.511-14.155-98.194c8.84-34.689 30.901-62.51 59.425-79.448 28.523-16.938 63.509-22.994 98.198-14.154 4.346 1.107 8.584 2.424 12.707 3.934s8.131 3.214 12.016 5.096c27.11 13.158 48.196 35.134 60.571 61.407s16.039 56.843 8.307 87.186z" fill="#fa7701"/><path d="m497.798 317.082c-7.731 30.337-25.579 55.424-49.019 72.572s-52.473 26.355-82.574 24.934c-27.11-13.158-48.195-35.138-60.57-61.412s-16.04-56.844-8.309-87.181c7.733-30.344 25.581-55.431 49.021-72.577s52.472-26.35 82.573-24.929c27.11 13.158 48.196 35.134 60.571 61.407s16.039 56.843 8.307 87.186z" fill="#fa820b"/><g fill="#fa7701"><path d="m409.422 244.998c-1.339 5.256-.422 10.557 2.145 14.878 2.566 4.322 6.782 7.665 12.037 9.004 5.256 1.339 10.557.422 14.878-2.145s7.665-6.782 9.004-12.037c1.339-5.256.422-10.557-2.145-14.878-2.566-4.322-6.782-7.665-12.037-9.004-5.256-1.339-10.557-.422-14.878 2.145-4.322 2.566-7.665 6.782-9.004 12.037z"/><path d="m377.097 371.842c-1.339 5.256-.422 10.557 2.145 14.878s6.782 7.665 12.037 9.004c5.256 1.339 10.556.422 14.878-2.145 4.322-2.566 7.665-6.782 9.004-12.037 1.339-5.256.422-10.557-2.145-14.878-2.566-4.322-6.782-7.665-12.037-9.004-5.256-1.339-10.557-.422-14.878 2.145-4.321 2.566-7.664 6.781-9.004 12.037z"/><path d="m320.213 329.946c-1.339 5.256-.422 10.557 2.145 14.878s6.782 7.665 12.037 9.004c5.256 1.339 10.557.422 14.878-2.145 4.322-2.566 7.665-6.782 9.004-12.037 1.339-5.256.422-10.557-2.145-14.878-2.566-4.322-6.782-7.665-12.037-9.004-5.256-1.339-10.557-.422-14.878 2.145-4.322 2.567-7.664 6.782-9.004 12.037z"/></g><path d="m248.1 278.883c-1.339 5.256-.422 10.557 2.145 14.878 2.566 4.322 6.782 7.665 12.037 9.004 5.256 1.339 10.557.422 14.878-2.145s7.665-6.782 9.004-12.037c1.339-5.256.422-10.557-2.145-14.878s-6.782-7.665-12.037-9.004c-5.256-1.339-10.557-.422-14.878 2.145s-7.665 6.782-9.004 12.037z" fill="#de6305"/><path d="m426.568 336.781c-.821 3.22-.258 6.468 1.314 9.116s4.155 4.696 7.375 5.517 6.468.258 9.116-1.314 4.696-4.155 5.517-7.375.258-6.468-1.314-9.116-4.155-4.696-7.375-5.517-6.468-.258-9.116 1.314-4.696 4.155-5.517 7.375z" fill="#fa7701"/><path d="m313.014 260.737c-.821 3.22-.258 6.468 1.314 9.116s4.155 4.696 7.375 5.517 6.468.258 9.116-1.314 4.696-4.155 5.517-7.375.258-6.468-1.314-9.116-4.155-4.696-7.375-5.517-6.468-.258-9.116 1.314c-2.648 1.573-4.696 4.155-5.517 7.375z" fill="#fa7701"/><path d="m271.786 345.005c-.821 3.22-.258 6.468 1.314 9.116s4.155 4.696 7.375 5.517 6.468.258 9.116-1.314 4.696-4.155 5.517-7.375.258-6.468-1.314-9.116-4.155-4.696-7.375-5.517-6.468-.258-9.116 1.314-4.696 4.155-5.517 7.375z" fill="#de6305"/><path d="m305.346 185.79c-.821 3.22-.258 6.468 1.314 9.116s4.155 4.696 7.375 5.517 6.468.258 9.116-1.314 4.696-4.155 5.517-7.375.258-6.468-1.314-9.116-4.155-4.696-7.375-5.517-6.468-.258-9.116 1.314-4.696 4.155-5.517 7.375z" fill="#de6305"/><path d="m378.674 163.569c-.595 2.335.966 4.984 3.97 7.38 3.004 2.395 7.452 4.537 12.632 5.857s10.11 1.568 13.894.903 6.423-2.244 7.018-4.579-.966-4.984-3.97-7.38c-3.004-2.395-7.452-4.537-12.632-5.857s-10.11-1.568-13.894-.903-6.423 2.244-7.018 4.579z" fill="#de6305"/><path d="m357.191 264.374c-.821 3.22-.258 6.468 1.314 9.116s4.155 4.696 7.375 5.517 6.468.258 9.116-1.314 4.696-4.155 5.517-7.375.258-6.468-1.314-9.116-4.155-4.696-7.375-5.517-6.468-.258-9.116 1.314c-2.648 1.573-4.696 4.155-5.517 7.375z" fill="#fa7701"/><path d="m429.277 197.888c-.821 3.22-.258 6.468 1.314 9.116s4.155 4.696 7.375 5.517 6.468.258 9.116-1.314 4.696-4.155 5.517-7.375.258-6.468-1.314-9.116-4.155-4.696-7.375-5.517-6.468-.258-9.116 1.314c-2.648 1.573-4.696 4.155-5.517 7.375z" fill="#fa7701"/><path d="m452.294 145.057c-6.402 8.936-15.269 15.227-24.156 19.636s-17.792 6.936-24.269 8.344c-1.373.297-2.736.283-4.018.007s-2.483-.814-3.531-1.565-1.944-1.715-2.618-2.84-1.126-2.411-1.286-3.806c-.75-6.586-1.222-15.831.094-25.663 1.316-9.833 4.42-20.253 10.822-29.189 9.326-13.018 23.892-20.421 36.126-24.57s22.137-5.044 22.137-5.044 2.338 9.664 2.345 22.583-2.32 29.09-11.646 42.107z" fill="#14a16e"/><path d="m461.594 80.366-32.637 45.556-32.637 45.556c-1.048-.751-1.944-1.715-2.618-2.84s-1.126-2.411-1.286-3.806c-.75-6.586-1.222-15.831.094-25.663 1.316-9.833 4.42-20.253 10.822-29.189 9.326-13.018 23.892-20.421 36.126-24.57 12.233-4.15 22.136-5.044 22.136-5.044z" fill="#098c5d"/><path d="m262.137 167.385v89.026 89.026c0 15.151-6.137 28.864-16.062 38.789s-23.638 16.062-38.789 16.062h-61.196-61.197c-15.151 0-28.87-6.137-38.801-16.062s-16.075-23.638-16.075-38.789v-89.027-89.026c0-12.224 4.687-23.357 12.36-31.696s18.333-13.883 30.28-14.93c.694-.076 1.388-.126 2.085-.158s1.397-.044 2.104-.044h69.233 69.233c.706 0 1.413.019 2.116.054s1.403.085 2.097.148c11.959 1.06 22.613 6.604 30.277 14.94 7.662 8.336 12.335 19.462 12.335 31.687z" fill="#94cc2c"/><path d="m219.7 91.743v14.508 14.507h-73.61-73.61v-14.507-14.508h73.61z" fill="#7fad24"/><path d="m219.7 120.557v-14.407-14.407h-50.878-50.877v14.407 14.407.101.1h.088.089 50.7 50.701.088.089v-.1z" fill="#89c527"/><path d="m262.137 41.888v15.794 15.794c0 5.046-2.044 9.613-5.346 12.918s-7.862 5.349-12.896 5.349h-97.805-97.806c-5.034 0-9.6-2.044-12.909-5.349-3.308-3.305-5.358-7.872-5.358-12.918v-15.794-15.794c0-5.046 2.05-9.613 5.358-12.918s7.875-5.349 12.909-5.349h97.806 97.806c5.033 0 9.594 2.044 12.896 5.349s5.345 7.872 5.345 12.918z" fill="#1f3d5c"/><path d="m262.137 41.888v15.794 15.794c0 5.046-2.044 9.613-5.346 12.918s-7.862 5.349-12.896 5.349h-62.029-62.029c-5.046 0-9.613-2.044-12.918-5.349s-5.349-7.872-5.349-12.918v-15.794-15.794c0-5.046 2.044-9.613 5.349-12.918s7.872-5.349 12.918-5.349h62.029 62.029c5.033 0 9.594 2.044 12.896 5.349 3.303 3.305 5.346 7.872 5.346 12.918z" fill="#245073"/><path d="m75.482 345.436c0 15.151 6.144 28.864 16.075 38.789s23.65 16.062 38.801 16.062h38.464 38.464c15.151 0 28.864-6.137 38.789-16.062s16.062-23.638 16.062-38.789v-13.305-13.305h-93.327-93.328v13.305z" fill="#a0e42e"/><path d="m219.523 120.758h.088.088v-.101-.101h-2.195-2.195-46.5-46.5c-.706 0-1.407.013-2.104.044-.697.032-1.391.082-2.085.158-11.947 1.047-22.607 6.592-30.28 14.93s-12.36 19.472-12.36 31.696v15.483 15.483h93.328 93.328v-15.483-15.483c0-12.224-4.674-23.351-12.338-31.686-7.662-8.335-18.316-13.88-30.275-14.94z" fill="#a0e42e"/><path d="m30.017 198.351v60.238 60.238h22.732 22.733v-60.238-60.238h-22.733z" fill="#c4c4c4"/><path d="m75.482 318.827h93.328 93.327v-60.238-60.238h-93.327-93.328v60.238z" fill="#fff"/><path d="m185.56 270.004c-.815-.79-1.708-1.383-2.68-1.778s-2.025-.593-3.16-.593c-1.325 0-2.467.195-3.429.585s-1.741.975-2.341 1.755-1.15 1.675-1.651 2.685-.954 2.135-1.359 3.375c-.965 2.625-2.16 4.935-3.586 6.928s-3.084 3.668-4.974 5.023c-1.895 1.36-3.997 2.38-6.311 3.06s-4.839 1.02-7.579 1.02c-2.52 0-4.88-.3-7.081-.899s-4.244-1.496-6.129-2.691c-1.88-1.2-3.548-2.705-5.001-4.516-1.454-1.811-2.694-3.929-3.719-6.353-1.025-2.425-1.795-5.16-2.309-8.203s-.771-6.393-.771-10.047c0-1.705.058-3.35.171-4.935.114-1.585.284-3.11.509-4.575.495-3.23 1.268-6.162 2.315-8.799s2.37-4.976 3.965-7.021c2.32-2.97 5.038-5.198 8.152-6.683 3.115-1.485 6.628-2.228 10.538-2.228 1.185 0 2.325.068 3.417.203s2.137.338 3.132.608c1.085.285 2.115.65 3.091 1.092.976.443 1.899.963 2.769 1.557 1.68 1.155 3.25 2.605 4.71 4.349s2.81 3.781 4.05 6.111c.745 1.41 1.458 2.613 2.136 3.606s1.324 1.779 1.934 2.354 1.37 1.008 2.283 1.296 1.977.434 3.197.434c1.09 0 2.1-.207 3.03-.624.93-.416 1.78-1.041 2.55-1.876s1.347-1.732 1.732-2.694c.385-.961.578-1.986.578-3.076 0-1.99-.395-4.04-1.186-6.151s-1.979-4.284-3.564-6.519c-1.58-2.23-3.507-4.282-5.784-6.157s-4.901-3.573-7.876-5.093c-2.07-1.055-4.243-1.927-6.518-2.616s-4.652-1.194-7.133-1.514c-1.07-.14-2.163-.245-3.275-.315-1.113-.07-2.245-.105-3.395-.105-3.125 0-6.155.277-9.094.832s-5.786 1.388-8.546 2.498c-2.755 1.115-5.335 2.48-7.739 4.099s-4.631 3.491-6.681 5.621c-2.055 2.125-3.87 4.468-5.446 7.026s-2.914 5.334-4.014 8.324c-.655 1.77-1.212 3.61-1.671 5.52s-.819 3.89-1.079 5.94c-.185 1.41-.325 2.855-.419 4.334s-.141 2.991-.141 4.537c0 2.33.11 4.597.33 6.8s.55 4.34.99 6.41c.435 2.075.982 4.087 1.64 6.037s1.425 3.837 2.3 5.662c.875 1.83 1.842 3.57 2.901 5.221s2.209 3.214 3.449 4.689c.425.495.855.975 1.29 1.439s.875.911 1.32 1.341c1.025 1 2.082 1.922 3.171 2.769s2.209 1.616 3.359 2.311c1.655.99 3.405 1.852 5.249 2.585s3.781 1.335 5.811 1.805 4.173.823 6.428 1.058 4.623.353 7.103.353c3.27 0 6.337-.262 9.202-.786s5.527-1.309 7.988-2.354c2.345-1.005 4.492-2.15 6.44-3.439s3.695-2.721 5.24-4.301c.075-.07.147-.143.219-.216.071-.074.141-.149.211-.224 1.585-1.675 2.957-3.367 4.117-5.077s2.108-3.438 2.843-5.183c.74-1.74 1.295-3.42 1.665-5.039s.555-3.176.555-4.671c0-1.175-.205-2.255-.613-3.239s-1.016-1.872-1.826-2.662z" fill="#fc7701"/><path d="m378.41 390.221c1.253.382 2.224 1.248 2.775 2.327s.68 2.372.249 3.609c-10.508 30.147-32.036 53.576-58.639 67.119s-58.282 17.201-89.091 7.807-55.058-30.104-69.579-56.187c-14.521-26.082-19.315-57.536-11.215-88.418.332-1.267 1.161-2.267 2.221-2.856 1.059-.588 2.348-.765 3.601-.383l109.839 33.491z" fill="#de6305"/><path d="m245.742 349.767-30.116-9.182-30.116-9.183v.001.001l30.116 9.183 30.116 9.183v-.002z" fill="#fa820b"/><path d="m351.632 382.056v-.001l.001-.001-30.116-9.183-30.116-9.182-.001.001v.001l30.116 9.183z" fill="#fa820b"/><path d="m288.23 370.265 21.551 23.236 21.551 23.237c4.553-4.755 8.603-10.062 12.026-15.861 3.424-5.8 6.222-12.093 8.274-18.821l-30.116-9.183-30.116-9.183c-.367 1.203-.821 2.354-1.353 3.451s-1.14 2.141-1.817 3.124z" fill="#fa820b"/><path d="m291.4 363.691v-.001l.001-.001-22.829-6.961-22.83-6.961v.001.002l22.829 6.961z" fill="#f8b581"/><path d="m351.63 382.064c-1.005 3.295-2.19 6.485-3.54 9.564s-2.865 6.046-4.53 8.896c-.88 1.515-1.805 2.995-2.771 4.44s-1.974 2.855-3.019 4.23c-.085.12-.173.237-.263.354s-.182.231-.277.347h-.005-.005c-.915 1.195-1.865 2.362-2.846 3.501s-1.994 2.249-3.034 3.329l-6.27-6.75-6.27-6.75-.005-.005-.005-.005-11.3-12.185-11.3-12.185-3.975-4.29-3.975-4.29c.25-.37.492-.745.725-1.129s.455-.776.665-1.181c.12-.225.237-.452.351-.682s.224-.463.329-.698c.04-.085.078-.17.114-.256s.071-.174.106-.264c.105-.24.205-.482.301-.727s.189-.492.279-.742c.05-.15.1-.298.149-.445s.096-.295.141-.445v-.005-.005l-3.27-.995-3.27-.995h-.005-.005l-2.935-.895-2.935-.895-.005-.005-.005-.005-7.945-2.42-7.945-2.42-.85-.26-.85-.26-7.145-2.175-7.145-2.175-.005-.005-.005-.005-.665-.2-.665-.2c-.435 1.415-.723 2.843-.879 4.266s-.181 2.844-.091 4.244h-.005-.005l-2.535.595-2.535.595-1.395.325-1.395.325-13.87 3.27-13.87 3.27-12.97 3.05-12.97 3.05c-.195-1.025-.37-2.055-.526-3.089s-.294-2.071-.414-3.111c-.065-.57-.125-1.143-.179-1.716-.054-.574-.101-1.149-.141-1.724-.01-.095-.017-.19-.024-.284-.006-.094-.011-.186-.016-.276-.032-.473-.061-.947-.085-1.422s-.045-.949-.062-1.425c-.004-.126-.007-.252-.009-.378s-.004-.253-.008-.379c-.009-.344-.018-.689-.024-1.034s-.01-.69-.011-1.036c0-.18.001-.36.003-.54s.005-.36.007-.54c.003-.286.006-.572.011-.858s.011-.572.019-.859c.007-.223.015-.447.025-.67s.02-.447.03-.67c.011-.236.022-.472.034-.708s.025-.472.04-.709c.017-.266.035-.533.054-.799s.04-.533.062-.8c.015-.182.03-.364.046-.546s.032-.364.049-.547c.03-.317.061-.634.094-.951s.068-.634.105-.952c.013-.113.027-.226.041-.339s.028-.226.042-.339c.048-.383.097-.765.149-1.148s.106-.766.165-1.149c.002-.012.004-.025.006-.037s.004-.025.006-.037c.068-.443.139-.886.214-1.329s.153-.886.236-1.329c.07-.4.145-.797.223-1.195s.158-.795.238-1.195c.005-.015.01-.028.014-.04s.006-.025.006-.04c.065-.305.132-.61.202-.915s.142-.61.217-.915c.095-.405.193-.812.294-1.22.101-.407.206-.815.316-1.22.035-.135.073-.27.111-.406.039-.136.079-.274.119-.414.095-.34.193-.682.293-1.026s.203-.689.308-1.034l-4.1-1.25-4.1-1.25-2.005-.615-2.005-.615c-.485 1.58-.925 3.163-1.322 4.748s-.753 3.173-1.068 4.763c-1.34 6.635-1.98 13.28-1.964 19.848s.689 13.057 1.974 19.382c.115.57.233 1.14.356 1.707s.254 1.132.394 1.692c.845 3.545 1.885 7.032 3.11 10.448s2.635 6.758 4.22 10.012c5.84 12.015 14.075 22.843 24.298 31.718s22.433 15.797 36.223 20.003c18.4 5.605 37.17 5.627 54.486 1.037s33.179-13.793 45.764-26.638c2.025-2.06 3.962-4.215 5.807-6.461s3.598-4.584 5.253-7.009c.56-.825 1.11-1.66 1.65-2.504s1.07-1.696 1.59-2.556c2.025-3.4 3.862-6.947 5.496-10.632s3.064-7.508 4.274-11.457l-6.105-1.86zm-115.26 55.3v.005.005c-.365-.145-.73-.295-1.095-.447s-.73-.307-1.095-.463c-.36-.16-.717-.32-1.074-.48-.356-.16-.711-.32-1.066-.48-.715-.33-1.42-.668-2.117-1.014-.698-.346-1.388-.701-2.073-1.066-1.715-.91-3.39-1.87-5.025-2.88s-3.23-2.07-4.785-3.18c-.62-.445-1.232-.895-1.839-1.352-.606-.457-1.206-.922-1.801-1.398-.59-.475-1.175-.955-1.754-1.443s-1.151-.982-1.716-1.488c-.565-.5-1.122-1.007-1.672-1.522s-1.092-1.037-1.628-1.567c-2.145-2.115-4.172-4.335-6.076-6.649s-3.684-4.721-5.334-7.211c-.485-.725-.957-1.46-1.416-2.203-.459-.742-.904-1.492-1.334-2.248h-.005-.005c-.125-.21-.248-.422-.369-.636s-.241-.429-.361-.644c-.365-.65-.72-1.308-1.066-1.969s-.684-1.326-1.014-1.991c-.655-1.34-1.278-2.695-1.866-4.066s-1.144-2.759-1.664-4.164l9.475-2.235 9.475-2.235 2.235-.525 2.235-.525 19.83-4.665 19.83-4.665c.255.31.518.613.79.909s.555.586.85.871c.19.19.385.377.584.562s.401.368.606.548c.06.05.122.102.185.154s.125.101.185.146c.255.215.512.42.775.619s.53.391.805.581l-7.865 25.77-7.865 25.77v.005.005l-1.105 3.625-1.105 3.625-.335 1.105zm84.05-10.98c-.195.155-.395.305-.596.451s-.404.289-.604.429c-.255.18-.51.36-.765.539s-.51.356-.765.531c-.115.085-.232.167-.35.247s-.235.157-.35.233c-.035.02-.07.042-.105.065s-.07.045-.105.065c-.09.06-.18.123-.271.184s-.184.121-.279.176c-.115.08-.232.16-.351.237s-.239.152-.359.222c-.625.405-1.255.8-1.89 1.186s-1.275.764-1.92 1.134c-.19.11-.38.22-.57.329s-.38.216-.57.321c-.18.095-.357.19-.535.285s-.355.19-.535.285c-2.03 1.085-4.105 2.088-6.217 3.006-2.112.919-4.262 1.754-6.442 2.504-.23.085-.463.167-.698.247s-.473.158-.712.232c-4.645 1.52-9.438 2.65-14.322 3.364-4.885.714-9.863 1.011-14.878.866-.365-.005-.73-.015-1.095-.03s-.73-.035-1.095-.06c-.025 0-.052 0-.081-.001s-.059-.004-.089-.009c-.075 0-.15-.003-.225-.006s-.15-.009-.225-.014c-.27-.01-.54-.025-.812-.044s-.547-.041-.827-.066c-.34-.03-.683-.06-1.026-.091s-.689-.064-1.034-.099c-.275-.03-.552-.06-.831-.091s-.559-.064-.839-.099c-.085-.01-.17-.02-.256-.03s-.174-.02-.264-.03c-.205-.025-.408-.053-.609-.082s-.401-.059-.601-.089c-.505-.07-1.01-.145-1.515-.226s-1.01-.169-1.515-.264c-.35-.06-.702-.123-1.056-.189s-.709-.136-1.064-.211c-.145-.03-.29-.063-.435-.095-.145-.033-.29-.065-.435-.095l.27-.875.27-.875.61-1.995.61-1.995v-.005-.005l8.42-27.625 8.42-27.625c1-.015 1.992-.095 2.972-.237.98-.141 1.948-.344 2.898-.604.315-.09.63-.185.943-.285s.622-.205.927-.315v.005.005l21.895 23.605 21.895 23.605h-.005-.007z" fill="#f8b581"/><path d="m210.54 381.295-11.712 2.756-11.712 2.756c4.15 11.217 10.586 21.517 18.924 30.182s18.578 15.696 30.335 20.376l1.442-4.728 1.442-4.728c-7.503-5.764-13.8-12.817-18.663-20.73-4.863-7.912-8.291-16.684-10.056-25.884z" fill="#fa7701"/><path d="m252.054 435.86-.877 2.875-.877 2.875c4.378.947 8.761 1.536 13.118 1.792 4.358.256 8.69.177 12.967-.21-2.116-.273-4.236-.63-6.353-1.081-2.117-.45-4.233-.993-6.343-1.636-2.032-.62-4.018-1.319-5.958-2.091-1.938-.77-3.831-1.614-5.677-2.524z" fill="#fa7701"/><path d="m213.99 340.089-14.24-4.342-14.24-4.342c-2.117 6.945-3.317 13.949-3.672 20.885s.134 13.804 1.393 20.475l12.968-3.052 12.968-3.052c.011-3.681.284-7.392.838-11.108.553-3.716 1.386-7.438 2.515-11.141.224-.734.46-1.46.706-2.18.245-.719.501-1.433.764-2.143z" fill="#fa7701"/><path d="m250.198 371.962-19.829 4.666-19.829 4.666c1.765 9.2 5.193 17.972 10.055 25.885s11.159 14.966 18.663 20.73l7.859-25.777 7.859-25.777c-.903-.625-1.755-1.309-2.552-2.044-.797-.733-1.54-1.519-2.226-2.349z" fill="#fa820b"/><path d="m320.421 426.383-21.893-23.605-21.893-23.605c-1.229.443-2.495.791-3.787 1.033s-2.611.377-3.947.396l-8.424 27.629-8.424 27.629c1.846.909 3.739 1.753 5.678 2.525s3.925 1.471 5.958 2.091c2.11.643 4.225 1.186 6.343 1.636 2.117.45 4.237.808 6.353 1.081 8.021-.726 15.843-2.559 23.253-5.396s14.408-6.675 20.783-11.414z" fill="#fa820b"/><path d="m245.742 349.77-15.876-4.841-15.876-4.841c-.263.71-.519 1.424-.765 2.145-.246.72-.483 1.446-.706 2.18-1.129 3.703-1.962 7.424-2.515 11.141-.553 3.716-.827 7.427-.838 11.108l17.804-4.19 17.804-4.19c-.091-1.399-.066-2.817.09-4.24.157-1.423.445-2.852.878-4.272z" fill="#fa820b"/></svg>